<svg id="bg-particles.svg" xmlns="http://www.w3.org/2000/svg" width="1197" height="267.559" viewBox="0 0 1197 267.559">
  <defs>
    <style>
      .cls-1, .cls-2 {
        fill: #a4eecb;
        fill-rule: evenodd;
      }

      .cls-2 {
        opacity: 0.5;
      }
    </style>
  </defs>
  <path id="Прямоугольник_1" data-name="Прямоугольник 1" class="cls-1" d="M236.17,1048.17l8.66-5,5,8.66-8.66,5Z" transform="translate(-122 -967.281)"/>
  <path id="Прямоугольник_1_копия_4" data-name="Прямоугольник 1 копия 4" class="cls-1" d="M522.876,1161.46l9.659-2.58,2.589,9.66-9.66,2.58Z" transform="translate(-122 -967.281)"/>
  <path id="Прямоугольник_1_копия_6" data-name="Прямоугольник 1 копия 6" class="cls-1" d="M1061.15,1036.18l8.67,4.97-4.97,8.67-8.67-4.97Z" transform="translate(-122 -967.281)"/>
  <path id="Прямоугольник_1_копия_5" data-name="Прямоугольник 1 копия 5" class="cls-1" d="M822.17,1229.83l5-8.66,8.66,5-5,8.66Z" transform="translate(-122 -967.281)"/>
  <path id="Прямоугольник_1_копия" data-name="Прямоугольник 1 копия" class="cls-1" d="M350.8,1106.26l16.936,4.54-4.538,16.94-16.937-4.54Z" transform="translate(-122 -967.281)"/>
  <path id="Прямоугольник_1_копия_2" data-name="Прямоугольник 1 копия 2" class="cls-1" d="M637.781,974.03l11.689-6.749,6.749,11.689-11.689,6.749Z" transform="translate(-122 -967.281)"/>
  <path id="Прямоугольник_1_копия_3" data-name="Прямоугольник 1 копия 3" class="cls-1" d="M1168.21,1149.02l8.77,15.19-15.19,8.77-8.77-15.19Z" transform="translate(-122 -967.281)"/>
  <path id="Прямоугольник_1_копия_7" data-name="Прямоугольник 1 копия 7" class="cls-2" d="M1319.01,1037.56l-21.57,12.45-12.45-21.57,21.57-12.45Z" transform="translate(-122 -967.281)"/>
  <path id="Прямоугольник_1_копия_8" data-name="Прямоугольник 1 копия 8" class="cls-2" d="M156.01,1173.44l-12.452,21.57-21.568-12.45,12.452-21.57Z" transform="translate(-122 -967.281)"/>
</svg>
