<svg xmlns="http://www.w3.org/2000/svg" width="8.03" height="16.03" viewBox="0 0 8.03 16.03">
  <defs>
    <style>
      .cls-1 {
        fill: #fff;
        fill-rule: evenodd;
      }
    </style>
  </defs>
  <path id="tumblr.svg" class="cls-1" d="M1022.4,5156.49a6,6,0,0,1-2.35.46,0.14,0.14,0,0,1-.09-0.11c-0.01-.05.03-0.81,0.03-2.06l-0.01-3.82h2.96V5148h-2.93l-0.05-4-3.12,1.92-0.17,2.08h-1.68l-0.03,2.92h2.05v4.25a15.39,15.39,0,0,0,.1,2.25,3.352,3.352,0,0,0,.52,1.41,1.7,1.7,0,0,0,.81.89,5.077,5.077,0,0,0,1.82.32,7.008,7.008,0,0,0,2.63-1.06l0.11-.14-0.03-2.89Z" transform="translate(-1014.97 -5144)"/>
</svg>
